<svg id="Слой_1" data-name="Слой 1" xmlns="http://www.w3.org/2000/svg" viewBox="0 0 511.91 512"><defs><style>.cls-1{fill:#ef4635;}</style></defs><title>kaspi</title><path class="cls-1" d="M110.31,464.37c26.72-110.83-5-114.62-5-168.4,0-17.93,14.14-60.85,16.21-81.7,4.82-47.92-7.07-35.16,27.92-70.67l2.07-49.3c17.58-16.89,26.37-32.06,47.91-26.71,13.1,39-11.72,26.71-14.13,72.22,14.65,19.47,24.47,21.37,35.51,45.85,14,31,4,30.68,30.33,56.7,38.78,4.48,62.22,4.66,90-23.27,2.94-29.81-14.3-27.23,3.28-54.63,12.07-18.79,24-29,46.54-21.38,7.41,29.3-25.86,35.34-15.51,67.91,44.64,4.48,55-57.05,89.11-60.15,0,65.67-68.6,74.29-70.16,127.72C393.33,312,423,404,453,423.69c26.37-40.51,54.81-84.63,58.08-133.58C534-43.93,92-104.77,8.1,187.72A230,230,0,0,0,0,233.06v38.78C7.41,368,66.7,452.47,110.31,464.37Z"/><path class="cls-1" d="M239.58,509.18C359,523.31,346.45,486.43,322.83,350.43c-9.3-53.6-20.16-81.87-83.76-76.87-39.65,47.06-19.65,138.75-18.27,178.91C221.83,484.19,216.49,486.26,239.58,509.18ZM377,476.43C397,474,400.4,469.88,416.6,457c2.59-27.4-16.2-71.53-45.5-80.32C357.31,403.18,361.27,450.4,377,476.43ZM180.12,499.18c0-33.44,4.14-102.55-13.1-126.34-22.93,6.72-15.86,26.37-16,68.26C150.82,471.78,145.13,496.08,180.12,499.18Z"/></svg>