<?xml version="1.0" encoding="utf-8"?>
<!-- Generator: Adobe Illustrator 23.1.0, SVG Export Plug-In . SVG Version: 6.00 Build 0)  -->
<svg version="1.1"
	 id="Слой_1" image-rendering="optimizeQuality" shape-rendering="geometricPrecision" text-rendering="geometricPrecision"
	 xmlns="http://www.w3.org/2000/svg" xmlns:xlink="http://www.w3.org/1999/xlink" x="0px" y="0px" viewBox="0 0 614 340.7"
	 style="enable-background:new 0 0 614 340.7;" xml:space="preserve">
<style type="text/css">
	.st0{fill:#EF4635;}
	.st1{fill:#FFFFFF;}
</style>
<path class="st0" d="M587,340.7H27c-14.9,0-27-12.1-27-27V27C0,12.1,12.1,0,27,0h560c14.9,0,27,12.1,27,27v286.7
	C614,328.6,601.9,340.7,587,340.7z"/>
<g>
	<path class="st1" d="M103.9,247.5c9.9-41.1-1.9-42.5-1.9-62.4c0-6.6,5.2-22.5,6-30.3c1.8-17.8-2.6-13,10.3-26.2l0.8-18.3
		c6.5-6.3,9.8-11.9,17.8-9.9c4.9,14.4-4.3,9.9-5.2,26.8c5.4,7.2,9.1,7.9,13.2,17c5.2,11.5,1.5,11.4,11.2,21
		c14.4,1.7,23.1,1.7,33.3-8.6c1.1-11-5.3-10.1,1.2-20.2c4.5-7,8.9-10.7,17.2-7.9c2.7,10.9-9.6,13.1-5.7,25.2
		c16.5,1.7,20.4-21.1,33-22.3c0,24.3-25.4,27.5-26,47.3c-0.4,12.4,10.6,46.5,21.7,53.8c9.8-15,20.3-31.4,21.5-49.5
		C260.8,59.2,97.1,36.7,66,145.1c-1.6,5.6-2.6,11.2-3,16.8v14.4C65.7,211.8,87.7,243.1,103.9,247.5L103.9,247.5z"/>
	<path class="st1" d="M151.8,264.1c44.3,5.2,39.6-8.4,30.8-58.8c-3.4-19.9-7.5-30.3-31-28.5c-14.7,17.4-7.3,51.4-6.8,66.3
		C145.2,254.9,143.2,255.7,151.8,264.1z M202.6,252c7.4-0.9,8.7-2.4,14.7-7.2c1-10.2-6-26.5-16.9-29.8
		C195.4,224.9,196.8,242.4,202.6,252z M129.7,260.4c0-12.4,1.5-38-4.9-46.8c-8.5,2.5-5.9,9.8-5.9,25.3
		C118.9,250.3,116.8,259.3,129.7,260.4z"/>
</g>
<g>
	<path class="st1" d="M294.5,217.1v-93.5h41.4c8.3,0,14.7,0.8,19,2.5c4.3,1.7,7.8,4.6,10.4,8.9c2.6,4.3,3.9,8.9,3.9,14.1
		c0,6.6-2.1,12.2-6.4,16.8c-4.3,4.5-10.9,7.4-19.9,8.7c3.3,1.6,5.8,3.1,7.5,4.7c3.6,3.3,7,7.5,10.3,12.4l16.3,25.4h-15.6l-12.4-19.4
		c-3.6-5.6-6.6-9.9-8.9-12.9c-2.3-3-4.4-5.1-6.3-6.2c-1.8-1.2-3.7-2-5.6-2.5c-1.4-0.3-3.7-0.4-6.9-0.4h-14.3v41.5H294.5z
		 M306.9,164.9h26.6c5.7,0,10.1-0.6,13.3-1.8c3.2-1.2,5.6-3,7.3-5.6c1.7-2.6,2.5-5.4,2.5-8.4c0-4.4-1.6-8.1-4.8-10.9
		c-3.2-2.8-8.3-4.3-15.2-4.3h-29.6V164.9z"/>
	<path class="st1" d="M388.9,217.1v-93.5h67.6v11h-55.2v28.6h51.7v11h-51.7v31.8h57.4v11H388.9z"/>
	<path class="st1" d="M475.7,217.1v-93.5h32.2c7.3,0,12.8,0.4,16.6,1.3c5.4,1.2,9.9,3.5,13.7,6.7c4.9,4.2,8.6,9.5,11.1,16
		c2.4,6.5,3.7,13.9,3.7,22.2c0,7.1-0.8,13.4-2.5,18.9c-1.7,5.5-3.8,10-6.4,13.6c-2.6,3.6-5.4,6.4-8.5,8.5c-3.1,2.1-6.8,3.6-11.2,4.7
		c-4.4,1.1-9.4,1.6-15,1.6H475.7z M488.1,206.1h20c6.2,0,11-0.6,14.5-1.7c3.5-1.1,6.3-2.8,8.4-4.8c2.9-2.9,5.2-6.9,6.9-11.8
		c1.6-5,2.5-11,2.5-18c0-9.8-1.6-17.3-4.8-22.5s-7.1-8.8-11.7-10.6c-3.3-1.3-8.7-1.9-16-1.9h-19.6V206.1z"/>
</g>
</svg>
