<?xml version="1.0" encoding="UTF-8"?> <svg xmlns="http://www.w3.org/2000/svg" width="91" height="32" viewBox="0 0 91 32" fill="none"> <g clip-path="url(#clip0_11_2864)"> <path fill-rule="evenodd" clip-rule="evenodd" d="M39.3752 14.72V0.640015H46.4018C49.6707 0.640015 51.4417 2.70401 51.4417 5.17032C51.4417 7.62996 49.6447 9.71875 46.4018 9.71875H42.5744V14.72H39.3752ZM48.183 5.17032C48.183 3.99199 47.2362 3.27602 45.9725 3.27602H42.5744V7.07321H45.9725C47.2362 7.07321 48.183 6.34199 48.183 5.17032Z" fill="#EE7838"></path> <path fill-rule="evenodd" clip-rule="evenodd" d="M63.113 14.72L62.2224 12.3335H55.9287L55.0029 14.72H51.4417L57.1183 0.640015H61.0328L66.6837 14.72H63.113ZM59.0755 3.63384L56.783 9.69801H61.3681L59.0755 3.63384Z" fill="#EE7838"></path> <path fill-rule="evenodd" clip-rule="evenodd" d="M71.5437 14.72V8.95988L66.0486 0.640015H69.5084L73.0666 6.29051L76.5607 0.640015H80.0205L74.5789 8.95988V14.72H71.5437Z" fill="#EE7838"></path> <path fill-rule="evenodd" clip-rule="evenodd" d="M39.3752 32V17.92H46.5975C49.2005 17.92 50.5319 19.6295 50.5319 21.5058C50.5319 23.2849 49.4669 24.4652 48.1752 24.7408C49.6384 24.9648 50.8067 26.4188 50.8067 28.1988C50.8067 30.3115 49.4291 32 46.8161 32H39.3752ZM47.5574 22.0378C47.5574 21.1531 46.9396 20.5038 45.9512 20.5038H42.2925V23.5595H45.9512C46.9396 23.5595 47.5574 22.9226 47.5574 22.0378ZM47.8229 27.7745C47.8229 26.8926 47.2052 26.1356 46.0554 26.1356H42.2925V29.4058H46.0554C47.1674 29.4058 47.8229 28.788 47.8229 27.7745Z" fill="#267ED0"></path> <path fill-rule="evenodd" clip-rule="evenodd" d="M52.0768 24.64C52.0768 20.3468 55.1483 17.28 59.3656 17.28C63.5933 17.28 66.6837 20.3468 66.6837 24.64C66.6837 28.9248 63.5933 32 59.3656 32C55.1483 32 52.0768 28.9248 52.0768 24.64ZM63.6226 24.64C63.6226 21.9758 61.9411 19.9641 59.3656 19.9641C56.7902 19.9641 55.1285 21.9758 55.1285 24.64C55.1285 27.2863 56.7902 29.3159 59.3656 29.3159C61.9411 29.3159 63.6226 27.2863 63.6226 24.64Z" fill="#267ED0"></path> <path fill-rule="evenodd" clip-rule="evenodd" d="M77.1308 32L73.6659 26.843L70.18 32H66.6837L71.6964 24.7798L66.9868 17.92H70.5021L73.6659 22.7348L76.7983 17.92H80.343L75.643 24.7579L80.6556 32H77.1308Z" fill="#267ED0"></path> <path fill-rule="evenodd" clip-rule="evenodd" d="M0 15.68L4.52532 7.84047L7.05667 3.45343L9.09024 6.89837L7.54032 9.58133L4.02094 15.68L7.54032 21.7796L11.0597 27.8773H11.1059L18.2832 15.6423L11.1059 3.48266H11.0597L9.02707 0.0405509L9.05064 0H13.0348H18.1003H27.151L31.6763 7.84047L36.1997 15.68L31.6763 23.5205L27.151 31.36H18.1003H17.0039L19.0525 27.8773H25.14L28.6594 21.7796L32.1798 15.68L28.6594 9.58133L25.14 3.48266H18.1003H15.0919L22.274 15.6432L15.0806 27.8773H15.0891L13.032 31.36H9.05064L4.52532 23.5205L0 15.68Z" fill="#267ED0"></path> <mask id="mask0_11_2864" style="mask-type:alpha" maskUnits="userSpaceOnUse" x="82" y="0" width="9" height="32"> <path d="M90.1106 31.8867V0.305542H82.9511V31.8867H90.1106Z" fill="white"></path> </mask> <g mask="url(#mask0_11_2864)"> <path fill-rule="evenodd" clip-rule="evenodd" d="M83.1539 5.00474L87.5544 3.15578C87.6626 3.1145 87.7323 3.0953 87.7819 3.0953C87.8314 3.0953 87.9002 3.12602 87.9892 3.1673C88.4332 3.3737 88.768 3.68282 88.9561 3.93146C89.1735 4.1993 89.3111 4.49978 89.3799 4.72634L90.111 4.49978C90.0706 4.2713 89.9229 3.82682 89.5487 3.38426C89.035 2.76314 88.1965 2.31962 86.5581 1.66874L83.1539 0.305542V1.26554L85.9564 2.25914C86.3022 2.38298 86.6664 2.48474 86.9535 2.57882V2.59802C86.6664 2.68058 86.2912 2.80634 85.9756 2.91866L83.1539 4.01402V5.00474ZM85.0785 9.00122C84.4758 8.93018 83.6667 8.52698 83.6667 7.60826C83.6667 6.5849 84.5253 6.33818 85.0785 6.34682V9.00122ZM85.6995 5.50202C85.6105 5.49146 85.472 5.46938 85.2949 5.46938C84.4171 5.46938 83.0456 5.90426 83.0456 7.53626C83.0456 8.99066 84.1795 9.87866 85.6197 9.87866C87.0617 9.87866 88.0277 8.95994 88.0277 7.42202C88.0277 6.62522 87.8708 6.07802 87.7323 5.75834L87.1104 5.9129C87.2489 6.25562 87.3571 6.6473 87.3571 7.29818C87.3571 8.2073 86.8746 8.99066 85.6995 9.01274V5.50202ZM87.9296 15.2499V14.3417H85.0583C84.9097 14.3417 84.762 14.3196 84.6537 14.2783C84.1694 14.1238 83.7657 13.6601 83.7657 13.0611C83.7657 12.2028 84.407 11.9043 85.1766 11.9043H87.9296V10.9942H85.0785C83.4401 10.9942 83.0456 12.0675 83.0456 12.7596C83.0456 13.5862 83.4887 14.166 83.9428 14.4137V14.4329L83.1539 14.4847V15.2911C83.5483 15.2604 83.9529 15.2499 84.4464 15.2499H87.9296ZM83.6969 18.8239C83.6969 17.7478 84.7225 17.3244 85.5316 17.3244C86.6077 17.3244 87.3865 17.9763 87.3865 18.8431C87.3865 19.7321 86.5976 20.3609 85.5509 20.3609C84.6436 20.3609 83.6969 19.8972 83.6969 18.8239ZM83.0456 18.8019C83.0456 20.1852 83.9822 21.2796 85.5812 21.2796C87.0911 21.2796 88.0378 20.2371 88.0378 18.8835C88.0378 17.6758 87.2682 16.3951 85.5023 16.3951C84.0419 16.3951 83.0456 17.3667 83.0456 18.8019ZM87.9296 29.5327V28.6428H85.0482C84.8996 28.6428 84.7519 28.6236 84.6244 28.5718C84.1896 28.4259 83.7556 28.014 83.7556 27.4467C83.7556 26.7535 84.3088 26.4022 85.0684 26.4022H87.9296V25.5142H84.9785C84.8207 25.5142 84.6638 25.4835 84.5455 25.4422C84.1208 25.2876 83.7556 24.8844 83.7556 24.3689C83.7556 23.6345 84.3088 23.2831 85.2261 23.2831H87.9296V22.3951H85.1179C83.4593 22.3951 83.0456 23.3782 83.0456 24.0367C83.0456 24.5119 83.163 24.8431 83.3805 25.1436C83.5281 25.3481 83.7364 25.5449 84.0024 25.7014V25.7206C83.4401 25.9385 83.0456 26.455 83.0456 27.1366C83.0456 27.9612 83.4694 28.4259 83.9235 28.7043V28.7369L83.1539 28.7791V29.574C83.5483 29.5433 83.9529 29.5327 84.4464 29.5327H87.9296ZM84.1951 31.2761C84.1951 30.8959 83.929 30.6579 83.5731 30.6579C83.2089 30.6579 82.9511 30.9046 82.9511 31.2655C82.9511 31.6275 83.2089 31.8867 83.5731 31.8867C83.929 31.8867 84.1951 31.638 84.1951 31.2761Z" fill="#EE7838"></path> </g> </g> <defs> <clipPath id="clip0_11_2864"> <rect width="90.1818" height="32" fill="white"></rect> </clipPath> </defs> </svg> 