<svg id="Слой_1" data-name="Слой 1" xmlns="http://www.w3.org/2000/svg" viewBox="0 0 191 60"><defs><style>.cls-1{fill:#ddcf73;}.cls-2{fill:#fff;}</style></defs><title>logo-dark</title><path class="cls-1" d="M58.22,13.86,46,1.39A.82.82,0,0,1,46.6,0h10a3,3,0,0,1,3,3V13.28a.8.8,0,0,1-1.36.58Z" transform="translate(0 0)"/><path class="cls-1" d="M1.66,46.44l12.18,12.2a.8.8,0,0,1,0,1.13.79.79,0,0,1-.56.23h-10a3,3,0,0,1-3-3V47a.8.8,0,0,1,.8-.8.79.79,0,0,1,.56.23Z" transform="translate(0 0)"/><path class="cls-2" d="M20.43,0H2.69A2.94,2.94,0,0,0,.76.76a3,3,0,0,0-.76,2V20.57A2,2,0,0,0,.58,22L19.16,40.7,37.74,59.41a2,2,0,0,0,1.41.59H56.88a3,3,0,0,0,1.94-.76,3,3,0,0,0,.76-2V39.43A2.06,2.06,0,0,0,59,38L40.42,19.3,21.84.59A2,2,0,0,0,20.43,0Z" transform="translate(0 0)"/><path class="cls-2" d="M71.55,10.14a2.79,2.79,0,0,1,1.08-2.5,4.37,4.37,0,0,1,2.53-.73,5.2,5.2,0,0,1,2.3.45,9.12,9.12,0,0,1,1.25.71c.34.4.88,1.12,1.63,2.14S82,12.45,83,13.84s2,2.91,3.15,4.54l3.33,4.86c1.1,1.62,2.15,3.18,3.13,4.69s1.85,2.84,2.58,4V9.68A2.6,2.6,0,0,1,96,7.59a3.4,3.4,0,0,1,2.26-.68,6.19,6.19,0,0,1,2.8.65V41.49H95l-2.15-3.35c-.84-1.29-1.76-2.7-2.78-4.23l-3.18-4.77-3.31-4.91c-1.1-1.63-2.18-3.2-3.23-4.69s-2-2.85-2.88-4.06v26H71.55Zm35.09,31.35c.84-2.25,1.77-4.68,2.81-7.28s2.12-5.28,3.25-8,2.32-5.52,3.54-8.34,2.42-5.58,3.63-8.27a6.38,6.38,0,0,1,2-2.8,5.05,5.05,0,0,1,2.9-.78,5.53,5.53,0,0,1,1.28.15,8.42,8.42,0,0,1,1.11.35c.31.14.58.26.8.38a2.85,2.85,0,0,1,.37.23q.81,1.41,2.08,4.18c.85,1.85,1.76,3.92,2.75,6.23s2,4.71,3,7.21,2,4.87,2.89,7.11,1.66,4.22,2.33,6,1.13,3,1.4,3.7h-6.62c-.16-.4-.38-1-.65-1.71s-.55-1.54-.87-2.4l-1-2.59c-.33-.88-.63-1.65-.9-2.32H116.06c-.74,1.85-1.39,3.55-2,5.12s-1.06,2.86-1.43,3.9Zm24.2-14.31c-.47-1.25-1-2.62-1.61-4.11s-1.19-3-1.77-4.39-1.14-2.73-1.66-3.91-.92-2.06-1.23-2.67l-1.45,3.2q-.8,1.8-1.65,3.78c-.57,1.33-1.14,2.68-1.7,4.06s-1.11,2.72-1.61,4Zm17.61-17a3,3,0,0,1,.8-2.35,3.71,3.71,0,0,1,1.85-.93,27,27,0,0,1,3.23-.35c1.49-.11,3.63-.16,6.44-.16a28.78,28.78,0,0,1,7.51.81,13.09,13.09,0,0,1,4.64,2.14,7.08,7.08,0,0,1,2.32,3.08,10.17,10.17,0,0,1,.66,3.66,8.69,8.69,0,0,1-1.48,5A7.17,7.17,0,0,1,173,22.61a8.2,8.2,0,0,1-1.55,1,8.34,8.34,0,0,1,4.13,2.95,8.49,8.49,0,0,1,1.58,5.27,12.11,12.11,0,0,1-.65,4,7.13,7.13,0,0,1-2.43,3.25,13.3,13.3,0,0,1-5,2.17,35.22,35.22,0,0,1-8.19.78c-1.6,0-3.12,0-4.56-.08l-3.81-.15c-1.1,0-2-.11-2.73-.17s-1.17-.1-1.37-.1V10.19Zm15.12,11.09a9.81,9.81,0,0,0,3-.38,5.56,5.56,0,0,0,2-1,3.54,3.54,0,0,0,1.08-1.51,5.57,5.57,0,0,0,.33-1.89,4.77,4.77,0,0,0-.43-2,3.63,3.63,0,0,0-1.5-1.58,8.43,8.43,0,0,0-2.65-1,19.12,19.12,0,0,0-4.06-.37c-1.94,0-3.52.05-4.76.15a22.15,22.15,0,0,0-2.3.25v9.38Zm-9.31,15.17a22.36,22.36,0,0,0,2.23.26c1.23.11,2.88.15,5.08.15a25.62,25.62,0,0,0,4.46-.33,8.93,8.93,0,0,0,2.93-1,4,4,0,0,0,1.6-1.66,5.3,5.3,0,0,0,.48-2.35,5.67,5.67,0,0,0-.33-2,3.69,3.69,0,0,0-1.1-1.59,5.72,5.72,0,0,0-2.05-1.09,10.68,10.68,0,0,0-3.18-.4H154.26ZM184.74,9.68a2.48,2.48,0,0,1,.85-2.09,3.67,3.67,0,0,1,2.31-.68,5.79,5.79,0,0,1,1.75.25l1,.35v34h-6Z" transform="translate(0 0)"/><path class="cls-2" d="M72.73,52.78h1a3,3,0,0,0,2.07-.64,2.34,2.34,0,0,0,.71-1.82,2.83,2.83,0,0,0-.16-1,2.09,2.09,0,0,0-.5-.78A2.33,2.33,0,0,0,75,48a3.79,3.79,0,0,0-1.25-.18L73,48h-.3v4.79Zm-1.18-5.15a.66.66,0,0,1,.1-.41A.55.55,0,0,1,72,47a2.24,2.24,0,0,1,.68-.1h1.07a5.13,5.13,0,0,1,1.69.25,3.42,3.42,0,0,1,1.27.69,3,3,0,0,1,.8,1.11,3.65,3.65,0,0,1,.28,1.46,3.72,3.72,0,0,1-.27,1.47A2.86,2.86,0,0,1,76.73,53a3.33,3.33,0,0,1-1.29.71,5.86,5.86,0,0,1-1.77.24H72.11l-.56-.06Zm11.89-.1a.48.48,0,0,1,.17-.42.72.72,0,0,1,.45-.13,1.34,1.34,0,0,1,.35.05l.21.07v6.72H83.44Zm7.33,4.72a1.81,1.81,0,0,0,.33.2c.18.09.36.16.54.23a6,6,0,0,0,.73.19,5.47,5.47,0,0,0,.9.08,2.22,2.22,0,0,0,1.24-.25.89.89,0,0,0,.28-1.11.81.81,0,0,0-.24-.28,1.44,1.44,0,0,0-.4-.18,4.54,4.54,0,0,0-.53-.12l-1.09-.2a5.34,5.34,0,0,1-.81-.21,2.65,2.65,0,0,1-.68-.37,1.73,1.73,0,0,1-.48-.56,1.63,1.63,0,0,1-.18-.81,2.14,2.14,0,0,1,.16-.79,1.53,1.53,0,0,1,.49-.66,2.48,2.48,0,0,1,.85-.45,4.09,4.09,0,0,1,1.25-.16,5.83,5.83,0,0,1,1.61.2,3.52,3.52,0,0,1,.45.18l.24.14a.85.85,0,0,1,.26.24.41.41,0,0,1,.1.3.71.71,0,0,1-.14.42,1.27,1.27,0,0,1-.25.27,2,2,0,0,0-.29-.22A3.47,3.47,0,0,0,94,47.91a3.29,3.29,0,0,0-.83-.08,3.18,3.18,0,0,0-.75.07,1.42,1.42,0,0,0-.48.19.83.83,0,0,0-.26.3,1,1,0,0,0-.07.39.7.7,0,0,0,.29.6,2.38,2.38,0,0,0,1,.34l1.11.21a3.55,3.55,0,0,1,1.62.66,1.6,1.6,0,0,1,.55,1.31,1.83,1.83,0,0,1-.19.86,1.86,1.86,0,0,1-.55.66,2.5,2.5,0,0,1-.9.43,4.41,4.41,0,0,1-1.25.15,6.59,6.59,0,0,1-1.09-.09,8.75,8.75,0,0,1-.88-.23,5.3,5.3,0,0,1-.65-.28,2.77,2.77,0,0,1-.37-.22l.51-.92Zm13-4.18h-2c-.4,0-.59-.18-.59-.54a1,1,0,0,1,.06-.35.72.72,0,0,1,.09-.2H107c.39,0,.59.18.59.54a1,1,0,0,1-.06.34.67.67,0,0,1-.09.21H105v5.75h-1.18V48.07Zm9.09-.44a.56.56,0,0,1,.16-.46.81.81,0,0,1,.38-.19l.56-.06h1.18a3.77,3.77,0,0,1,2.33.6,2.12,2.12,0,0,1,.43,2.81,2.2,2.2,0,0,1-.9.67c.13.19.28.4.42.64l.42.72.4.74.36.7h-1.4a1.88,1.88,0,0,0-.25-.51c-.12-.23-.25-.48-.39-.73l-.42-.74a4.93,4.93,0,0,0-.34-.54H114v2.55h-1.15ZM114,50.25h1.13a3.44,3.44,0,0,0,.9-.09,1.57,1.57,0,0,0,.58-.25.91.91,0,0,0,.32-.38,1.44,1.44,0,0,0,.1-.5,1.27,1.27,0,0,0-.09-.47,1,1,0,0,0-.31-.38,1.44,1.44,0,0,0-.59-.27,3.71,3.71,0,0,0-.94-.1h-.76a1.93,1.93,0,0,0-.34,0v2.44Zm10-2.72a.52.52,0,0,1,.17-.42.69.69,0,0,1,.46-.13,1.15,1.15,0,0,1,.37,0l.21.07v6.72H124Zm7.12.1a.59.59,0,0,1,.16-.47.82.82,0,0,1,.36-.18,4.64,4.64,0,0,1,.64-.07h1.28a5.77,5.77,0,0,1,1.49.16,2.52,2.52,0,0,1,.91.42,1.33,1.33,0,0,1,.46.61,2,2,0,0,1,.13.72,1.58,1.58,0,0,1-.08.57,1.64,1.64,0,0,1-.49.73,2,2,0,0,1-.31.19,1.61,1.61,0,0,1,1.13,1.62,2.34,2.34,0,0,1-.13.79,1.33,1.33,0,0,1-.48.64,2.48,2.48,0,0,1-1,.43,6.8,6.8,0,0,1-1.62.16H131.1V47.63Zm3,2.19a2,2,0,0,0,.59-.07,1.2,1.2,0,0,0,.39-.2.9.9,0,0,0,.21-.3,1.21,1.21,0,0,0,.06-.38.88.88,0,0,0-.08-.39.79.79,0,0,0-.28-.32,2,2,0,0,0-.53-.2,3.56,3.56,0,0,0-.8-.07h-1.45v1.85Zm-1.84,3h1.44a6.51,6.51,0,0,0,.88-.06,1.74,1.74,0,0,0,.58-.2.78.78,0,0,0,.32-.33,1.27,1.27,0,0,0,.09-.47,1.21,1.21,0,0,0-.06-.38.87.87,0,0,0-.22-.32,1.07,1.07,0,0,0-.41-.21,1.91,1.91,0,0,0-.63-.08h-2v2Zm10.12-5.29a.51.51,0,0,1,.16-.42A.69.69,0,0,1,143,47a1.49,1.49,0,0,1,.36,0,.9.9,0,0,1,.21.08v3.54a4.19,4.19,0,0,0,.1,1,1.7,1.7,0,0,0,.32.71,1.48,1.48,0,0,0,.59.43,3,3,0,0,0,1.81,0,1.48,1.48,0,0,0,.59-.43,1.83,1.83,0,0,0,.32-.71,4.19,4.19,0,0,0,.1-1V47.53a.51.51,0,0,1,.16-.42A.69.69,0,0,1,148,47a1.49,1.49,0,0,1,.36,0,.9.9,0,0,1,.21.08v3.64a3.46,3.46,0,0,1-.77,2.41,3.64,3.64,0,0,1-4.65,0,3.46,3.46,0,0,1-.77-2.41V47.53Zm13.95.54h-2c-.39,0-.59-.18-.59-.54a1,1,0,0,1,.06-.35.72.72,0,0,1,.09-.2h5.66c.39,0,.59.18.59.54a1.27,1.27,0,0,1,0,.34.81.81,0,0,1-.1.21h-2.5v5.75h-1.18Zm9.09-.54a.48.48,0,0,1,.17-.42.72.72,0,0,1,.45-.13,1.34,1.34,0,0,1,.35.05l.21.07v6.72h-1.18V47.53Zm10.45-.73a3.86,3.86,0,0,1,1.43.27,3.72,3.72,0,0,1,1.15.76,3.29,3.29,0,0,1,.77,1.14,3.65,3.65,0,0,1-1.92,4.75,3.82,3.82,0,0,1-2.86,0A3.59,3.59,0,0,1,173.3,53a3.55,3.55,0,0,1-.76-1.15,3.46,3.46,0,0,1-.28-1.42,3.51,3.51,0,0,1,.28-1.43,3.35,3.35,0,0,1,.76-1.14,3.67,3.67,0,0,1,2.59-1Zm0,6.11a2.29,2.29,0,0,0,1-.19,2.34,2.34,0,0,0,.76-.52,2.71,2.71,0,0,0,.5-.79,2.87,2.87,0,0,0,0-2,2.64,2.64,0,0,0-.5-.8,2.31,2.31,0,0,0-1.76-.7,2.55,2.55,0,0,0-.95.18,2.34,2.34,0,0,0-.76.52,2.16,2.16,0,0,0-.5.8,2.87,2.87,0,0,0,0,2,2.17,2.17,0,0,0,.5.79,2.24,2.24,0,0,0,.76.52,2.21,2.21,0,0,0,.95.19Zm9.28-5.29a.57.57,0,0,1,.21-.5,1,1,0,0,1,.5-.14.9.9,0,0,1,.46.09l.25.14.32.42q.22.3.51.72c.2.28.41.57.63.9l.66,1,.62.93.51.79v-4.4a.51.51,0,0,1,.16-.42.64.64,0,0,1,.44-.13,1.49,1.49,0,0,1,.36,0l.2.08v6.71h-1.19c-.12-.19-.26-.41-.43-.66l-.55-.84-.63-.94c-.22-.33-.44-.65-.65-1s-.43-.63-.64-.92l-.57-.81v5.15h-1.18V47.62Z" transform="translate(0 0)"/></svg>