<svg id="Слой_1" data-name="Слой 1" xmlns="http://www.w3.org/2000/svg" viewBox="0 0 191 60"><defs><style>.cls-1{fill:#ddcf73;}.cls-2{fill:#005564;}</style></defs><title>Безымянный-1</title><path class="cls-1" d="M58.22,13.86,46,1.39A.82.82,0,0,1,46.6,0h10a3,3,0,0,1,3,3.05V13.28a.8.8,0,0,1-1.36.58Z"/><path class="cls-1" d="M1.66,46.44l12.18,12.2A.8.8,0,0,1,13.27,60h-10a3,3,0,0,1-3-3V47a.8.8,0,0,1,1.36-.57Z"/><path class="cls-2" d="M20.43,0H2.69A2.91,2.91,0,0,0,.76.76a3,3,0,0,0-.76,2V20.57A2,2,0,0,0,.58,22L19.16,40.7,37.74,59.41a2,2,0,0,0,1.41.59H56.88a2.94,2.94,0,0,0,1.94-.76,3,3,0,0,0,.76-2V39.43A2.05,2.05,0,0,0,59,38L40.42,19.3,21.84.59A2,2,0,0,0,20.43,0Z"/><path class="cls-2" d="M71.55,10.14a2.8,2.8,0,0,1,1.08-2.5,4.38,4.38,0,0,1,2.53-.73,5.15,5.15,0,0,1,2.3.45,9.5,9.5,0,0,1,1.25.71c.34.4.88,1.12,1.63,2.14S82,12.45,83,13.84s2,2.91,3.15,4.54l3.33,4.86c1.1,1.62,2.15,3.18,3.13,4.69s1.85,2.84,2.58,4V9.68a2.6,2.6,0,0,1,.8-2.09,3.43,3.43,0,0,1,2.26-.68,6.19,6.19,0,0,1,2.8.65V41.49H95l-2.15-3.35c-.84-1.29-1.76-2.7-2.78-4.23l-3.18-4.77-3.31-4.91c-1.1-1.63-2.18-3.2-3.23-4.69s-2-2.85-2.88-4.06v26H71.55V10.14Zm35.09,31.35c.84-2.25,1.77-4.68,2.81-7.28s2.12-5.28,3.25-8,2.32-5.52,3.54-8.34,2.42-5.58,3.63-8.27a6.42,6.42,0,0,1,2-2.8,5.08,5.08,0,0,1,2.9-.78,5.47,5.47,0,0,1,1.28.15,7.68,7.68,0,0,1,1.11.35c.31.14.58.26.8.38a3,3,0,0,1,.37.23q.81,1.41,2.08,4.18t2.75,6.23c1,2.3,2,4.71,3,7.21s2,4.87,2.89,7.11,1.66,4.22,2.33,5.95,1.13,3,1.4,3.7h-6.62c-.16-.4-.38-1-.65-1.71s-.55-1.54-.87-2.4l-1-2.59c-.33-.88-.63-1.65-.9-2.32H116.06c-.74,1.85-1.39,3.55-2,5.12s-1.06,2.86-1.43,3.9Zm24.2-14.31c-.47-1.25-1-2.62-1.61-4.11s-1.19-3-1.77-4.39-1.14-2.73-1.66-3.91-.92-2.06-1.23-2.67l-1.45,3.2q-.8,1.8-1.65,3.78c-.57,1.33-1.14,2.68-1.7,4.06s-1.11,2.72-1.61,4Zm17.61-17a3,3,0,0,1,.8-2.35,3.67,3.67,0,0,1,1.85-.93,26.78,26.78,0,0,1,3.23-.35c1.49-.11,3.63-.16,6.44-.16a29,29,0,0,1,7.51.81,12.94,12.94,0,0,1,4.64,2.14,7.07,7.07,0,0,1,2.32,3.08,10.23,10.23,0,0,1,.66,3.66,8.52,8.52,0,0,1-.43,2.84,8.61,8.61,0,0,1-1.05,2.15A7.23,7.23,0,0,1,173,22.61a8.32,8.32,0,0,1-1.55,1,8.35,8.35,0,0,1,4.13,2.95,8.51,8.51,0,0,1,1.58,5.27,12.12,12.12,0,0,1-.65,4,7.14,7.14,0,0,1-2.43,3.25,13.24,13.24,0,0,1-5,2.17,35.34,35.34,0,0,1-8.19.78c-1.6,0-3.12,0-4.56-.08l-3.81-.15c-1.1-.05-2-.11-2.73-.17s-1.17-.1-1.37-.1V10.19Zm15.12,11.09a10,10,0,0,0,3-.38,5.6,5.6,0,0,0,1.95-1,3.58,3.58,0,0,0,1.08-1.51,5.37,5.37,0,0,0,.33-1.89,4.77,4.77,0,0,0-.43-2A3.67,3.67,0,0,0,168,12.91a8.32,8.32,0,0,0-2.65-1,18.8,18.8,0,0,0-4.06-.37c-1.94,0-3.52.05-4.76.15a22.58,22.58,0,0,0-2.3.25v9.38Zm-9.31,15.17c.3.07,1,.15,2.23.26s2.88.15,5.08.15a25.33,25.33,0,0,0,4.46-.33,8.8,8.8,0,0,0,2.93-1,4,4,0,0,0,1.6-1.66,5.33,5.33,0,0,0,.48-2.35,5.68,5.68,0,0,0-.33-2,3.75,3.75,0,0,0-1.1-1.59,5.61,5.61,0,0,0-2.05-1.09,10.67,10.67,0,0,0-3.18-.4H154.26ZM184.74,9.68a2.5,2.5,0,0,1,.85-2.09,3.63,3.63,0,0,1,2.31-.68,5.78,5.78,0,0,1,1.75.25l1,.35v34h-6Z"/><path class="cls-2" d="M72.73,52.78a1.59,1.59,0,0,0,.32,0l.72,0a3,3,0,0,0,2.07-.64,2.35,2.35,0,0,0,.71-1.82,2.86,2.86,0,0,0-.16-1,2.05,2.05,0,0,0-.5-.78,2.33,2.33,0,0,0-.87-.51,3.88,3.88,0,0,0-1.25-.18L73,48l-.3,0v4.79Zm-1.18-5.15a.69.69,0,0,1,.1-.41A.56.56,0,0,1,72,47a2.39,2.39,0,0,1,.68-.1l1.07,0a5.18,5.18,0,0,1,1.69.25,3.52,3.52,0,0,1,1.27.69,3,3,0,0,1,.8,1.11,3.62,3.62,0,0,1,.28,1.46,3.78,3.78,0,0,1-.27,1.47A2.86,2.86,0,0,1,76.73,53a3.48,3.48,0,0,1-1.29.71,5.92,5.92,0,0,1-1.77.24c-.7,0-1.23,0-1.56,0l-.56-.06V47.63Zm11.89-.1a.49.49,0,0,1,.17-.42.69.69,0,0,1,.45-.13,1.29,1.29,0,0,1,.35.05l.21.07v6.72H83.44V47.53Zm7.33,4.72a2,2,0,0,0,.33.2,5.14,5.14,0,0,0,.54.23,5.49,5.49,0,0,0,.73.19,5.11,5.11,0,0,0,.9.08,2.28,2.28,0,0,0,1.24-.25.84.84,0,0,0,.37-.73.74.74,0,0,0-.09-.38.8.8,0,0,0-.24-.28,1.47,1.47,0,0,0-.4-.18,3.47,3.47,0,0,0-.53-.12l-1.09-.2a5.34,5.34,0,0,1-.81-.21,2.62,2.62,0,0,1-.68-.37,1.73,1.73,0,0,1-.48-.56,1.7,1.7,0,0,1-.18-.81,2.1,2.1,0,0,1,.16-.79,1.51,1.51,0,0,1,.49-.66,2.45,2.45,0,0,1,.85-.45,4.17,4.17,0,0,1,1.25-.16,5.72,5.72,0,0,1,1.61.2,3,3,0,0,1,.45.18,1.93,1.93,0,0,1,.24.14.87.87,0,0,1,.26.24.44.44,0,0,1,.1.3.66.66,0,0,1-.14.42,1.12,1.12,0,0,1-.25.27,1.65,1.65,0,0,0-.29-.22,2.94,2.94,0,0,0-.47-.23,3.46,3.46,0,0,0-.66-.19,3.65,3.65,0,0,0-.83-.08,3.3,3.3,0,0,0-.75.07,1.34,1.34,0,0,0-.48.19.82.82,0,0,0-.26.3,1,1,0,0,0-.07.39.68.68,0,0,0,.29.6,2.43,2.43,0,0,0,1,.34l1.11.21a3.49,3.49,0,0,1,1.62.66,1.59,1.59,0,0,1,.55,1.31,1.87,1.87,0,0,1-.19.86,1.82,1.82,0,0,1-.55.66,2.51,2.51,0,0,1-.9.43,4.71,4.71,0,0,1-1.25.15,6.16,6.16,0,0,1-1.09-.09,7.43,7.43,0,0,1-.88-.23,5.25,5.25,0,0,1-.65-.28,3,3,0,0,1-.37-.22l.51-.92Zm13-4.18h-2c-.4,0-.59-.18-.59-.54a1,1,0,0,1,.06-.35,1.44,1.44,0,0,1,.09-.2H107c.39,0,.59.18.59.54a.93.93,0,0,1-.06.34.61.61,0,0,1-.09.21H105v5.75h-1.18V48.07Zm9.09-.44a.56.56,0,0,1,.16-.46.8.8,0,0,1,.38-.19l.56-.06c.27,0,.67,0,1.18,0a3.75,3.75,0,0,1,2.33.6,2.12,2.12,0,0,1,.43,2.81A2.2,2.2,0,0,1,117,51c.13.19.28.4.42.64l.42.72.4.74.36.7H117.2c0-.11-.13-.28-.25-.51s-.25-.48-.39-.73-.28-.5-.42-.74a6.14,6.14,0,0,0-.34-.54l-.36,0h-.34c-.23,0-.45,0-.65,0l-.44,0v2.55h-1.15V47.63ZM114,50.25l.39,0a6.86,6.86,0,0,0,.74,0,3.79,3.79,0,0,0,.9-.09,1.64,1.64,0,0,0,.58-.25.89.89,0,0,0,.32-.38,1.35,1.35,0,0,0,.1-.5,1.27,1.27,0,0,0-.09-.47,1,1,0,0,0-.31-.38,1.47,1.47,0,0,0-.59-.27,3.56,3.56,0,0,0-.94-.1c-.33,0-.58,0-.76,0a1.53,1.53,0,0,0-.34,0v2.3Zm10-2.72a.51.51,0,0,1,.17-.42.7.7,0,0,1,.46-.13A1.21,1.21,0,0,1,125,47a1,1,0,0,1,.21.07v6.72H124V47.53Zm7.12.1a.59.59,0,0,1,.16-.47.77.77,0,0,1,.36-.18,4.89,4.89,0,0,1,.64-.07c.3,0,.72,0,1.28,0a5.65,5.65,0,0,1,1.49.16,2.66,2.66,0,0,1,.91.42,1.32,1.32,0,0,1,.46.61,2,2,0,0,1,.13.72,1.67,1.67,0,0,1-.08.57,2.06,2.06,0,0,1-.21.42,1.67,1.67,0,0,1-.28.31,2.16,2.16,0,0,1-.31.19,1.6,1.6,0,0,1,1.13,1.62,2.26,2.26,0,0,1-.13.79,1.29,1.29,0,0,1-.48.64,2.41,2.41,0,0,1-1,.43,6.59,6.59,0,0,1-1.62.16l-.9,0-.76,0-.54,0-.27,0V47.63Zm3,2.19a2,2,0,0,0,.59-.07,1.19,1.19,0,0,0,.39-.2.86.86,0,0,0,.21-.3,1.16,1.16,0,0,0,.06-.38.85.85,0,0,0-.08-.39.84.84,0,0,0-.28-.32,1.9,1.9,0,0,0-.53-.2,3.72,3.72,0,0,0-.8-.07c-.39,0-.7,0-1,0a3.14,3.14,0,0,0-.45,0v1.85Zm-1.84,3a3.13,3.13,0,0,0,.44,0c.23,0,.57,0,1,0a5.44,5.44,0,0,0,.88-.06,1.87,1.87,0,0,0,.58-.2.84.84,0,0,0,.32-.33,1.13,1.13,0,0,0,.09-.47,1.16,1.16,0,0,0-.06-.38.87.87,0,0,0-.22-.32,1.13,1.13,0,0,0-.41-.21,1.93,1.93,0,0,0-.63-.08h-2v2Zm10.12-5.29a.51.51,0,0,1,.16-.42A.69.69,0,0,1,143,47a1.3,1.3,0,0,1,.36.05.82.82,0,0,1,.21.08v3.54a4.14,4.14,0,0,0,.1,1,1.72,1.72,0,0,0,.32.71,1.44,1.44,0,0,0,.59.43,3,3,0,0,0,1.81,0,1.44,1.44,0,0,0,.59-.43,1.86,1.86,0,0,0,.32-.71,4.14,4.14,0,0,0,.1-1V47.53a.51.51,0,0,1,.16-.42A.69.69,0,0,1,148,47a1.3,1.3,0,0,1,.36.05.82.82,0,0,1,.21.08v3.64a3.45,3.45,0,0,1-.77,2.41,3.64,3.64,0,0,1-4.65,0,3.45,3.45,0,0,1-.77-2.41V47.53Zm13.95.54h-2c-.39,0-.59-.18-.59-.54a1,1,0,0,1,.06-.35,1.44,1.44,0,0,1,.09-.2h5.66c.39,0,.59.18.59.54a1.21,1.21,0,0,1-.05.34.82.82,0,0,1-.1.21h-2.5v5.75h-1.18Zm9.09-.54a.49.49,0,0,1,.17-.42.69.69,0,0,1,.45-.13,1.23,1.23,0,0,1,.35.05,1,1,0,0,1,.21.07v6.72h-1.18V47.53Zm10.45-.73a3.75,3.75,0,0,1,1.43.27,3.66,3.66,0,0,1,1.15.76,3.33,3.33,0,0,1,.77,1.14,3.58,3.58,0,0,1,.28,1.43,3.5,3.5,0,0,1-2.2,3.32,3.79,3.79,0,0,1-2.86,0A3.51,3.51,0,0,1,173.3,53a3.6,3.6,0,0,1-.76-1.15,3.49,3.49,0,0,1-.28-1.42,3.58,3.58,0,0,1,.28-1.43,3.45,3.45,0,0,1,.76-1.14,3.64,3.64,0,0,1,2.59-1Zm0,6.11a2.3,2.3,0,0,0,1-.19,2.34,2.34,0,0,0,.76-.52,2.66,2.66,0,0,0,.5-.79,2.92,2.92,0,0,0,0-2,2.59,2.59,0,0,0-.5-.8,2.51,2.51,0,0,0-.76-.52,2.47,2.47,0,0,0-1-.18,2.44,2.44,0,0,0-.95.18,2.28,2.28,0,0,0-.76.52,2.13,2.13,0,0,0-.5.8,2.79,2.79,0,0,0-.18,1,2.75,2.75,0,0,0,.18,1,2.17,2.17,0,0,0,.5.79,2.24,2.24,0,0,0,.76.52A2.27,2.27,0,0,0,175.89,52.91Zm9.28-5.29a.56.56,0,0,1,.21-.5.92.92,0,0,1,.5-.14,1,1,0,0,1,.46.09l.25.14.32.42q.22.3.51.72c.2.28.41.57.63.9l.66,1,.62.93.51.79v-4.4a.51.51,0,0,1,.16-.42.64.64,0,0,1,.44-.13,1.3,1.3,0,0,1,.36.05l.2.08v6.71h-1.19c-.12-.19-.26-.41-.43-.66s-.35-.54-.55-.84l-.63-.94c-.22-.33-.44-.65-.65-1s-.43-.63-.64-.92l-.57-.81v5.15h-1.18v-6.2Z"/></svg>