<?xml version="1.0" encoding="utf-8"?>
<!-- Generator: Adobe Illustrator 23.1.0, SVG Export Plug-In . SVG Version: 6.00 Build 0)  -->
<svg version="1.1" id="Слой_1" xmlns="http://www.w3.org/2000/svg" xmlns:xlink="http://www.w3.org/1999/xlink" x="0px" y="0px"
	 viewBox="0 0 16 16" style="enable-background:new 0 0 16 16;" xml:space="preserve">
<style type="text/css">
	.st0{fill:#DDCF73;}
</style>
<path class="st0" d="M8,1c1.1,0,2,0.9,2,2v2H6V3C6,1.9,6.9,1,8,1z M11,5V3c0-1.7-1.3-3-3-3S5,1.3,5,3v2H3.4C2.6,5,2,5.5,1.9,6.3
	l-1,6.9C0.6,14.5,1.6,15.8,3,16c0.1,0,0.2,0,0.4,0h9.4c1.4,0,2.5-1.1,2.5-2.5c0-0.1,0-0.2,0-0.4l-1-6.9C14,5.5,13.4,5,12.6,5H11z
	 M10,6v1.5C10,7.8,10.2,8,10.5,8S11,7.8,11,7.5V6h1.6c0.2,0,0.5,0.2,0.5,0.4l1,6.9c0.1,0.8-0.4,1.6-1.3,1.7c-0.1,0-0.1,0-0.2,0H3.3
	c-0.8,0-1.5-0.7-1.5-1.5c0-0.1,0-0.1,0-0.2l1-6.9C2.9,6.2,3.1,6,3.4,6H5v1.5C5,7.8,5.2,8,5.5,8S6,7.8,6,7.5V6H10z"/>
</svg>
